<svg width="50" height="50" viewBox="0 0 50 50" fill="none" xmlns="http://www.w3.org/2000/svg">
<path d="M34.4478 7.94642C35.2763 7.11586 35.7888 5.96996 35.7888 4.70426C35.7888 2.16869 33.7334 0.113281 31.1978 0.113281C29.5949 0.113281 28.1856 0.935993 27.3645 2.18092C27.1463 2.39953 1.9383 33.4662 1.76771 33.725C0.939217 34.5555 0.426758 35.7014 0.426758 36.9671C0.426758 39.5027 2.48217 41.5581 5.01774 41.5581C6.6207 41.5581 8.02998 40.7354 8.85108 39.4904C9.06899 39.2716 34.2772 8.20497 34.4478 7.94642Z" fill="#1C3CF1"></path>
<path d="M40.0008 24.8616C40.8314 24.0308 41.345 22.8833 41.345 21.6158C41.345 19.0802 39.2896 17.0248 36.754 17.0248C35.1503 17.0248 33.7406 17.8484 32.9195 19.0943C32.6995 19.3143 15.5752 40.4939 15.4033 40.7547C14.5727 41.5855 14.0591 42.7331 14.0591 44.0006C14.0591 46.5362 16.1145 48.5916 18.6501 48.5916C20.2537 48.5916 21.6635 47.7682 22.4846 46.5221C22.7046 46.3021 39.829 25.1225 40.0008 24.8616Z" fill="#1C3CF1"></path>
<path d="M45.4176 15.5195C47.9531 15.5195 50.0085 13.464 50.0085 10.9286C50.0085 8.39307 47.9531 6.33765 45.4176 6.33765C42.8821 6.33765 40.8267 8.39307 40.8267 10.9286C40.8267 13.464 42.8821 15.5195 45.4176 15.5195Z" fill="#1C3CF1"></path>
<path d="M6.92333 15.514C9.45877 15.514 11.5141 13.4586 11.5141 10.9232C11.5141 8.38777 9.45877 6.3324 6.92333 6.3324C4.3879 6.3324 2.33252 8.38777 2.33252 10.9232C2.33252 13.4586 4.3879 15.514 6.92333 15.514Z" fill="#1C3CF1"></path>
</svg>